[Header]
FileType HTR
DataType HTRS
FileVersion 1
NumSegments 81
NumFrames 2
DataFrameRate 30
EulerRotationOrder ZYX
CalibrationUnits mm
RotationUnits Degrees
GlobalAxisofGravity Y
BoneLengthAxis Y
ScaleFactor 1.0
[SegmentNames&Hierarchy]
Hips	GLOBAL
LeftUpLeg	Hips
LeftLeg	LeftUpLeg
LeftFoot	LeftLeg
LeftToeBase	LeftFoot
LeftToeEnd	LeftToeBase
LeftLegRoll	LeftLeg
LeftUpLegRoll	LeftUpLeg
Spine	Hips
Spine1	Spine
Spine2	Spine1
LeftShoulder	Spine2
LeftArm	LeftShoulder
LeftForeArm	LeftArm
LeftForeArmRoll	LeftForeArm
LeftHand	LeftForeArm
LeftHandThumb1	LeftHand
LeftHandThumb2	LeftHandThumb1
LeftHandThumb3	LeftHandThumb2
LeftHandThumb4	LeftHandThumb3
LeftHandIndex1	LeftHand
LeftHandIndex2	LeftHandIndex1
LeftHandIndex3	LeftHandIndex2
LeftHandIndex4	LeftHandIndex3
LeftHandMiddle1	LeftHand
LeftHandMiddle2	LeftHandMiddle1
LeftHandMiddle3	LeftHandMiddle2
LeftHandMiddle4	LeftHandMiddle3
LeftHandRing1	LeftHand
LeftHandRing2	LeftHandRing1
LeftHandRing3	LeftHandRing2
LeftHandRing4	LeftHandRing3
LeftHandPinky1	LeftHand
LeftHandPinky2	LeftHandPinky1
LeftHandPinky3	LeftHandPinky2
LeftHandPinky4	LeftHandPinky3
LH_WP	LeftHand
LeftArmRoll	LeftArm
RightShoulder	Spine2
RightArm	RightShoulder
RightForeArm	RightArm
RightHand	RightForeArm
RightHandThumb1	RightHand
RightHandThumb2	RightHandThumb1
RightHandThumb3	RightHandThumb2
RightHandThumb4	RightHandThumb3
RightHandIndex1	RightHand
RightHandIndex2	RightHandIndex1
RightHandIndex3	RightHandIndex2
RightHandIndex4	RightHandIndex3
RightHandMiddle1	RightHand
RightHandMiddle2	RightHandMiddle1
RightHandMiddle3	RightHandMiddle2
RightHandMiddle4	RightHandMiddle3
RightHandRing1	RightHand
RightHandRing2	RightHandRing1
RightHandRing3	RightHandRing2
RightHandRing4	RightHandRing3
RightHandPinky1	RightHand
RightHandPinky2	RightHandPinky1
RightHandPinky3	RightHandPinky2
RightHandPinky4	RightHandPinky3
RH_WP	RightHand
RightForeArmRoll	RightForeArm
RightArmRoll	RightArm
Neck	Spine2
Neck1	Neck
Head	Neck1
Jaw	Head
L_Eye	Head
R_Eye_Socket	Head
L_Eye_Socket	Head
R_Eye	Head
BK_WEP1	Spine2
RightUpLeg	Hips
RightLeg	RightUpLeg
RightFoot	RightLeg
RightToeBase	RightFoot
RightToeEnd	RightToeBase
RightLegRoll	RightLeg
RightUpLegRoll	RightUpLeg
[BasePosition]
Hips	0	0	0	-90	-0	90	1
LeftUpLeg	0	0	0	0.1245552539	2.943081661	177.8888274	1
LeftLeg	0	0	0	-1.553056268e-018	-0.4645708947	-3.190265207	1
LeftFoot	0	0	0	-3.427050049	1.138743235	66.87228657	1
LeftToeBase	0	0	0	-0.1150285401	1.405135968	23.664964	1
LeftToeEnd	0	0	0	0	86.14893154	4.67902715	1
LeftLegRoll	0	0	0	0	-0.0003937979005	-0.0001763048027	1
LeftUpLegRoll	0	0	0	-7.231744079e-028	1.685187608e-005	2.666244888e-005	1
Spine	0	0	0	0	0	-3.518269458	1
Spine1	0	0	0	0	-0	7.885175398	1
Spine2	0	0	0	0	0	-0.09285174208	1
LeftShoulder	0	0	0	160.7860865	59.06322903	63.61338722	1
LeftArm	0	0	0	2.904619295	-26.91541272	-17.55355673	1
LeftForeArm	0	0	0	-90.22254753	-4.753527924	8.383736267	1
LeftForeArmRoll	0	0	0	0	0	0	1
LeftHand	0	0	0	90	-0	0	1
LeftHandThumb1	0	0	0	108.0365432	-19.14265923	-11.8633769	1
LeftHandThumb2	0	0	0	-15.63070336	0.2480216413	-4.679087203	1
LeftHandThumb3	0	0	0	-0.5621291509	1.199440794	-4.464397336	1
LeftHandThumb4	0	0	0	0	0	0	1
LeftHandIndex1	0	0	0	-0.1287480184	2.273223042	-5.916767355	1
LeftHandIndex2	0	0	0	0	0	0	1
LeftHandIndex3	0	0	0	0	0	0	1
LeftHandIndex4	0	0	0	0.06487671692	1.045318787	6.79153565	1
LeftHandMiddle1	0	0	0	-0.1873173809	2.298574433	-7.334490242	1
LeftHandMiddle2	0	0	0	0	0	0	1
LeftHandMiddle3	0	0	0	0	0	0	1
LeftHandMiddle4	0	0	0	0.1011317606	1.031425995	10.25668623	1
LeftHandRing1	0	0	0	-0.2038904391	2.187828672	-7.999827968	1
LeftHandRing2	0	0	0	0	0	0	1
LeftHandRing3	0	0	0	0	0	0	1
LeftHandRing4	0	0	0	0.1270826821	1.220105684	11.26838389	1
LeftHandPinky1	0	0	0	-0.1150589234	1.798482907	-6.335472682	1
LeftHandPinky2	0	0	0	0	0	0	1
LeftHandPinky3	0	0	0	0	0	0	1
LeftHandPinky4	0	0	0	0.09523892401	1.784551098	6.714729621	1
LH_WP	0	0	0	4.792186366e-012	2.776477095	-2.674328027	1
LeftArmRoll	0	0	0	0	2.176196996e-005	0	1
RightShoulder	0	0	0	160.7860865	59.06322903	-116.3866128	1
RightArm	0	0	0	2.904619295	-26.91541272	-17.55355673	1
RightForeArm	0	0	0	-90.22254753	-4.753527924	8.383736267	1
RightHand	0	0	0	90	-0	0	1
RightHandThumb1	0	0	0	108.0365432	-19.14265923	-11.8633769	1
RightHandThumb2	0	0	0	-15.63070336	0.2480216413	-4.679087203	1
RightHandThumb3	0	0	0	-0.5621291509	1.199440794	-4.464397336	1
RightHandThumb4	0	0	0	1.20741827e-006	-0	0	1
RightHandIndex1	0	0	0	-0.1287480183	2.273223042	-5.916767355	1
RightHandIndex2	0	0	0	0	0	0	1
RightHandIndex3	0	0	0	0	0	0	1
RightHandIndex4	0	0	0	0.06487671641	1.045318787	6.79153565	1
RightHandMiddle1	0	0	0	-0.187317381	2.298574433	-7.334490242	1
RightHandMiddle2	0	0	0	0	0	0	1
RightHandMiddle3	0	0	0	0	0	0	1
RightHandMiddle4	0	0	0	0.1011317605	1.031425995	10.25668623	1
RightHandRing1	0	0	0	-0.2038904391	2.187828672	-7.999827968	1
RightHandRing2	0	0	0	0	0	0	1
RightHandRing3	0	0	0	0	0	0	1
RightHandRing4	0	0	0	0.1270826818	1.220105684	11.26838389	1
RightHandPinky1	0	0	0	-0.1150589234	1.798482907	-6.335472682	1
RightHandPinky2	0	0	0	0	0	0	1
RightHandPinky3	0	0	0	0	0	0	1
RightHandPinky4	0	0	0	0.09523892401	1.784551098	6.714729621	1
RH_WP	0	0	0	4.903613047e-012	2.776477095	-2.674328027	1
RightForeArmRoll	0	0	0	0	0	0	1
RightArmRoll	0	0	0	0	2.17619649e-005	0	1
Neck	0	0	0	-0.5911792768	-0.1801087749	-21.21735117	1
Neck1	0	0	0	0.6101271651	0.09836090716	7.78649821	1
Head	0	0	0	0	-0	9.996624533	1
Jaw	0	0	0	-0.06946325017	0.08775954594	-129.2006421	1
L_Eye	0	0	0	90.83837297	89.99999895	0	1
R_Eye_Socket	0	0	0	90.83837297	89.99999895	0	1
L_Eye_Socket	0	0	0	90.83837262	89.99999895	0	1
R_Eye	0	0	0	90.83837262	89.99999895	0	1
BK_WEP1	0	0	0	94.2740542	90	0	1
RightUpLeg	0	0	0	0.1245552539	2.943081661	-2.111172621	1
RightLeg	0	0	0	1.770668338e-011	-0.4645708947	-3.190265207	1
RightFoot	0	0	0	-3.427050049	1.138743235	66.87228657	1
RightToeBase	0	0	0	-0.1150285401	1.405135968	23.664964	1
RightToeEnd	0	0	0	-4.55797616e-013	86.14893154	4.67902715	1
RightLegRoll	0	0	0	0.0001763058084	-5.425123434e-010	1.211761319e-009	1
RightUpLegRoll	0	0	0	2.663171688e-005	1.239300521e-011	-7.832936944e-012	1
[Hips]
32	9.739573479	991.3267822	1391.456787	-1.871763706	-1.158049822	0.6638632417	1.0
33	9.474019051	999.1125488	1432.52417	-0.5327681303	0.01454947889	0.9726850986	1.0
[LeftUpLeg]
32	-47.72184372	-9.041708946	-88.56555176	-2.946482182	-6.55799675	18.54993057	1.0
33	-47.72184372	-9.041708946	-88.56558228	-1.901037693	-5.899296284	14.83425045	1.0
[LeftLeg]
32	428.6572266	7.715668471e-005	-0.0001282976882	-1.232026935	-3.258864164	-15.32661438	1.0
33	428.6569519	0.0001586524741	-0.0001282976882	-0.7440133691	-3.042664766	-14.18190765	1.0
[LeftFoot]
32	444.4235229	-0.02578084543	-0.2265815288	9.304593086	5.880739212	-2.525969267	1.0
33	444.4237671	-0.02568662353	-0.1539300978	10.30758667	5.711184978	-0.371917814	1.0
[LeftToeBase]
32	155.278595	-3.741753244e-005	-3.431266668e-005	-0.03935459629	0.005078352056	0.01144728251	1.0
33	155.278656	-3.741753244e-005	-3.431266668e-005	-0.04860407114	0.005080739036	0.01326250285	1.0
[LeftToeEnd]
32	87.1754837	4.440892099e-015	-1.243449788e-013	0	0	0	1.0
33	87.1754837	4.440892099e-015	-1.243449788e-013	0	0	0	1.0
[LeftLegRoll]
32	198.573822	-9.775233048e-005	-7.768137039e-006	-1.158386588	0.05302481353	-0.00592821138	1.0
33	198.5737762	-0.0001171315089	-7.768137039e-006	-0.8129636049	0.03608609736	-0.00592821138	1.0
[LeftUpLegRoll]
32	166.719986	0.0001685168827	-1.329787847e-005	-8.562968105e-006	2.627955155e-006	4.093984103e-007	1.0
33	166.7198181	0.0001685168827	-1.329787847e-005	-8.562968105e-006	2.627955155e-006	4.093984103e-007	1.0
[Spine]
32	66.67909241	-8.790328979	-7.246826044e-006	-1.272362232	0.3449907303	-3.453135729	1.0
33	66.67909241	-8.790328979	-7.246826044e-006	-1.456570745	-0.2971945703	-3.61259985	1.0
[Spine1]
32	120.7897644	-2.382928869e-006	-1.243954466e-005	-0.6773372889	1.133860588	-1.022057772	1.0
33	120.7897644	-2.382928869e-006	-1.243954466e-005	-1.548777461	0.7657668591	-1.199008226	1.0
[Spine2]
32	97.34938049	-1.810785875e-006	-2.197143658e-006	-0.7052055597	1.115564346	-1.019676447	1.0
33	97.34938049	-1.810785875e-006	-2.197143658e-006	-1.565895557	0.7229448557	-1.193611622	1.0
[LeftShoulder]
32	193.5427094	-57.97096634	-41.53356552	8.029748917	7.153709412	-16.52590179	1.0
33	193.5426178	-57.97096634	-41.53356552	8.051613808	6.387730598	-16.51935959	1.0
[LeftArm]
32	156.8791809	7.011984417e-005	7.880633348e-005	35.30686188	3.141514301	-58.00998688	1.0
33	156.8790741	7.011984417e-005	7.880633348e-005	34.92730331	1.113834143	-58.25299835	1.0
[LeftForeArm]
32	274.6989136	0.002961191582	7.221605483e-005	-0.3573967814	-0.01252720878	-13.14840126	1.0
33	274.6987915	0.00304658548	4.662865831e-005	-0.371394515	-0.4087965488	-13.53943729	1.0
[LeftForeArmRoll]
32	107.0116882	8.881784197e-014	2.842170943e-013	4.050666809	0	0	1.0
33	107.0116882	8.881784197e-014	2.842170943e-013	3.840369225	0	0	1.0
[LeftHand]
32	266.6985474	-1.800283644e-005	-8.322389476e-005	5.063333988	5.208899498	-2.406086445	1.0
33	266.6986694	4.290775541e-005	4.694232302e-006	4.800461292	4.527806282	-0.4976505637	1.0
[LeftHandThumb1]
32	31.59937096	-14.66599846	50.44502258	-0.01290118694	-13.8564415	-3.613346577	1.0
33	31.59937096	-14.66599846	50.44502258	-0.01297035255	-13.85635662	-3.61302948	1.0
[LeftHandThumb2]
32	53.38059235	1.498850543e-005	7.028605614e-005	-9.149994003e-005	0.3002527952	-0.0003817302641	1.0
33	53.38059235	1.498850543e-005	7.028605614e-005	-9.149994003e-005	0.3002527952	-0.001806231565	1.0
[LeftHandThumb3]
32	33.23007202	1.22860547e-005	-2.294297155e-005	-4.535086191e-005	-9.180126654e-006	0.0003074773122	1.0
33	33.23007202	1.22860547e-005	-2.294297155e-005	-4.535086191e-005	0.0001355840941	0.001796722179	1.0
[LeftHandThumb4]
32	41.64097214	4.147438631e-006	0.0001250760542	-0.0001564055856	3.133403879e-006	2.732047506e-006	1.0
33	41.64097214	4.147438631e-006	0.0001250760542	-0.0001564055856	3.133403879e-006	2.732047506e-006	1.0
[LeftHandIndex1]
32	107.8285675	-7.018220901	35.98760223	-5.811536994e-006	-5.240920655e-005	-6.681395054	1.0
33	107.8285675	-7.018220901	35.98760223	-5.811536994e-006	-5.240920655e-005	-6.681041718	1.0
[LeftHandIndex2]
32	41.1088562	-2.352120464e-005	-2.933129144e-005	4.521650771e-005	-0.02178817801	-6.721609592	1.0
33	41.1088562	-2.352120464e-005	-2.933129144e-005	4.521650771e-005	-0.02178817801	-6.721910954	1.0
[LeftHandIndex3]
32	28.81010056	-6.147524982e-005	-6.828597634e-006	6.273760664e-005	-0.02164927498	-6.722048759	1.0
33	28.81010056	-6.147524982e-005	-6.828597634e-006	6.273760664e-005	-0.02157968283	-6.722682476	1.0
[LeftHandIndex4]
32	28.71870995	-2.630541712e-005	-8.31338366e-006	-2.364825014e-005	9.688740477e-008	4.758323655e-007	1.0
33	28.71870995	-2.630541712e-005	-8.31338366e-006	-2.364825014e-005	9.688740477e-008	4.758323655e-007	1.0
[LeftHandMiddle1]
32	108.926857	-1.069022179	10.86118889	-0.0008354546735	-0.02306411602	-6.72137022	1.0
33	108.926857	-1.069022179	10.86118889	-0.0008354546735	-0.02306411602	-6.721484184	1.0
[LeftHandMiddle2]
32	50.48866272	1.766570313e-005	4.843409988e-005	-0.0008171082591	-0.02305125445	-6.7293396	1.0
33	50.48866272	1.766570313e-005	4.843409988e-005	-0.0008171082591	-0.02305125445	-6.728525639	1.0
[LeftHandMiddle3]
32	33.4220047	-3.75697964e-005	-1.358096506e-005	-0.0007995794876	-0.0231531281	-6.720470905	1.0
33	33.4220047	-3.75697964e-005	-1.358096506e-005	-0.0007995794876	-0.02304718271	-6.721747398	1.0
[LeftHandMiddle4]
32	30.04672241	1.24678736e-005	-8.839362636e-006	-2.151279296e-005	3.737249017e-006	1.959143992e-005	1.0
33	30.04672241	1.24678736e-005	-8.839362636e-006	-2.151279296e-005	3.737249017e-006	1.959143992e-005	1.0
[LeftHandRing1]
32	109.0503845	-2.691722393	-12.87382126	-0.001155005419	-0.02301577479	-6.721166134	1.0
33	109.0503845	-2.691722393	-12.87382126	-0.001155005419	-0.02301577479	-6.721365452	1.0
[LeftHandRing2]
32	46.28152466	0.4492428303	-0.04896371067	-0.001298549352	-0.02504445612	-6.72263813	1.0
33	46.28152466	0.4492428303	-0.04896371067	-0.001298549352	-0.02504445612	-6.721586704	1.0
[LeftHandRing3]
32	29.52352905	-0.4492343068	0.04896384105	-0.001304716803	-0.02496479452	-6.720574856	1.0
33	29.52352905	-0.4492343068	0.04896384105	-0.001304716803	-0.02502429858	-6.721927166	1.0
[LeftHandRing4]
32	29.06703949	-8.064614667e-005	-2.592493274e-006	-2.559948916e-005	4.032513345e-007	-7.405305041e-006	1.0
33	29.06703949	-8.064614667e-005	-2.592493274e-006	-2.559948916e-005	4.032513345e-007	-7.405305041e-006	1.0
[LeftHandPinky1]
32	104.5423584	-10.7537632	-37.43114853	-0.002212065738	-0.02576850727	-6.721781254	1.0
33	104.5423584	-10.7537632	-37.43114853	-0.002212065738	-0.02576850727	-6.721386433	1.0
[LeftHandPinky2]
32	32.66357422	4.542809984e-005	2.186753045e-005	-0.002190768253	-0.02613775432	-6.736927986	1.0
33	32.66357422	4.542809984e-005	2.186753045e-005	-0.002190768253	-0.02613775432	-6.737519741	1.0
[LeftHandPinky3]
32	25.58546066	-0.0001442180801	5.615371265e-006	-0.002058417303	-0.02632614598	-6.721604824	1.0
33	25.58546066	-0.0001442180801	5.615371265e-006	-0.002058417303	-0.02643055283	-6.721729279	1.0
[LeftHandPinky4]
32	24.9887104	1.994265222e-005	9.815598787e-006	-3.115133586e-005	4.469477972e-006	-9.886784937e-006	1.0
33	24.9887104	1.994265222e-005	9.815598787e-006	-3.115133586e-005	4.469477972e-006	-9.886784937e-006	1.0
[LH_WP]
32	120	-50	-1.776356839e-014	0	0	0	1.0
33	120	-50	-1.776356839e-014	0	0	0	1.0
[LeftArmRoll]
32	132.8952332	6.396442768e-005	-4.204425204e-005	1.951125341e-006	-2.596907279e-006	8.169748071e-006	1.0
33	132.8951721	6.396442768e-005	4.050687494e-005	1.951125341e-006	-2.596907279e-006	8.169748071e-006	1.0
[RightShoulder]
32	193.5423431	-57.97095871	41.53348923	15.08431053	-2.51768446	-18.53385925	1.0
33	193.5423431	-57.97095871	41.53348923	15.23109245	-2.101462126	-18.73931313	1.0
[RightArm]
32	-156.8792267	-0.0007736476255	0.0001053106535	41.9372673	-14.8331089	-51.48284912	1.0
33	-156.8791199	-0.0007952533197	0.0001053106535	44.36529541	-12.81964016	-50.74346924	1.0
[RightForeArm]
32	-274.6985168	-0.003966070712	0.0001147229414	-0.3415092826	-0.8375129104	-14.12787724	1.0
33	-274.6986694	-0.00383882504	0.0001147229414	-0.2672566175	-0.1228478923	-12.42288208	1.0
[RightHand]
32	-266.6993408	-0.003073219908	0.0008488985477	-2.52642107	11.17864895	-2.14654398	1.0
33	-266.6993408	-0.003073219908	0.0008488985477	-3.301832438	12.07790947	-3.419068098	1.0
[RightHandThumb1]
32	-31.59878922	14.66024971	-50.44504166	-0.01193234138	-13.4993372	-2.857165337	1.0
33	-31.59878922	14.66024971	-50.44504166	-0.01194853708	-13.49933815	-2.857404232	1.0
[RightHandThumb2]
32	-53.38220978	-0.001566649647	-0.006651815027	-8.251657709e-005	-0.0001636507368	-0.001471160911	1.0
33	-53.38220978	-0.001566649647	-0.006651815027	-8.251657709e-005	-0.0001636507368	-0.000520083122	1.0
[RightHandThumb3]
32	-33.22898102	-0.0001522296225	0.005415679887	-6.073483382e-005	-0.0002661696926	0.0007929265266	1.0
33	-33.22898102	-0.0001522296225	0.005415679887	-6.073483382e-005	-0.0002661696926	-0.0003021337616	1.0
[RightHandThumb4]
32	-41.64128876	2.50704652e-005	-0.00196983316	-0.0001000055563	-2.130099801e-006	-4.877970696e-006	1.0
33	-41.64128876	2.50704652e-005	-0.00196983316	-0.0001000055563	-2.130099801e-006	-4.877970696e-006	1.0
[RightHandIndex1]
32	-107.8280258	7.018723965	-35.9876709	4.204014112e-005	-0.02174405195	-6.721408844	1.0
33	-107.8280258	7.018723965	-35.9876709	4.204014112e-005	-0.02174405195	-6.721371174	1.0
[RightHandIndex2]
32	-41.10911942	-0.003346124431	-1.78862847e-005	3.124775685e-005	-0.02176556922	-6.721321106	1.0
33	-41.10911942	-0.003346124431	-1.78862847e-005	3.124775685e-005	-0.02176556922	-6.721472263	1.0
[RightHandIndex3]
32	-28.81018066	0.001765439403	2.68525082e-006	1.786792018e-005	-0.02146874927	-6.721914291	1.0
33	-28.81018066	0.001765439403	2.68525082e-006	1.786792018e-005	-0.02148229629	-6.721745014	1.0
[RightHandIndex4]
32	-28.71783257	-0.003108778968	1.586362123e-005	-1.493754462e-005	-1.212779352e-006	-9.226591828e-006	1.0
33	-28.71783257	-0.003108778968	1.586362123e-005	-1.493754462e-005	-1.212779352e-006	-9.226591828e-006	1.0
[RightHandMiddle1]
32	-108.926857	1.063597441	-10.86116219	0.0001868384716	-0.02282170579	-6.721263885	1.0
33	-108.926857	1.063597441	-10.86116219	0.0001868384716	-0.02282170579	-6.721158028	1.0
[RightHandMiddle2]
32	-50.48833466	0.001339651179	2.375374788e-005	0.0001642687275	-0.02267166972	-6.728664875	1.0
33	-50.48833466	0.001339651179	2.375374788e-005	0.0001642687275	-0.02267166972	-6.728993416	1.0
[RightHandMiddle3]
32	-33.42213821	-0.003332593944	2.302100074e-005	0.0001218870966	-0.02237174287	-6.721847057	1.0
33	-33.42213821	-0.003332593944	2.302100074e-005	0.0001218870966	-0.02247284725	-6.721592426	1.0
[RightHandMiddle4]
32	-30.04623222	0.0008122664876	-2.058851123e-006	-4.330730917e-006	-9.398199836e-006	-1.902218719e-005	1.0
33	-30.04623222	0.0008122664876	-2.058851123e-006	-4.330730917e-006	-9.398199836e-006	-1.902218719e-005	1.0
[RightHandRing1]
32	-109.0496521	2.691180229	12.87375927	0.0002581341541	-0.02268882282	-6.721353531	1.0
33	-109.0496521	2.691180229	12.87374496	0.0002581341541	-0.02268882282	-6.721193314	1.0
[RightHandRing2]
32	-46.28044891	-0.4511820972	0.0489500016	4.356070713e-005	-0.02444208972	-6.721565247	1.0
33	-46.28044891	-0.4511820972	0.0489500016	4.356070713e-005	-0.02444208972	-6.721675396	1.0
[RightHandRing3]
32	-29.5250988	0.450481236	-0.04895903543	-1.179998094e-006	-0.02412139624	-6.7216506	1.0
33	-29.5250988	0.450481236	-0.04895903543	-1.179998094e-006	-0.02411749214	-6.721989632	1.0
[RightHandRing4]
32	-29.06622696	-0.00589569658	5.62874302e-005	-1.158445912e-006	1.577024705e-006	1.358736426e-005	1.0
33	-29.06622696	-0.00589569658	5.62874302e-005	-1.158445912e-006	1.577024705e-006	1.358736426e-005	1.0
[RightHandPinky1]
32	-104.542244	10.74950981	37.43112946	0.0002575968974	-0.02530636452	-6.721244812	1.0
33	-104.542244	10.74950981	37.43112946	0.0002575968974	-0.02530636452	-6.721229553	1.0
[RightHandPinky2]
32	-32.66366577	0.005259893369	-4.616614751e-005	0.0001512434828	-0.02507209964	-6.736972809	1.0
33	-32.66366577	0.005259893369	-4.616614751e-005	0.0001512434828	-0.02507209964	-6.737503052	1.0
[RightHandPinky3]
32	-25.58576202	-0.002923991065	8.959700062e-005	3.33084572e-005	-0.02459728345	-6.722974777	1.0
33	-25.58576202	-0.002923991065	8.959700062e-005	3.33084572e-005	-0.02469589934	-6.722106934	1.0
[RightHandPinky4]
32	-24.98819351	-0.004918924067	-6.33814343e-005	-2.06377299e-005	-7.119901824e-008	-3.390224492e-006	1.0
33	-24.98819351	-0.004918924067	-6.33814343e-005	-2.06377299e-005	-7.119901824e-008	-3.390224492e-006	1.0
[RH_WP]
32	-90.81784058	44.75069046	-9.102725983	-0.1271575838	-2.744757175	2.677313566	1.0
33	-90.81784058	44.75069046	-9.102725983	-0.1271575838	-2.744757175	2.677313566	1.0
[RightForeArmRoll]
32	-107.0118866	-0.003058596514	1.442765006e-005	-2.021136999	0	0	1.0
33	-107.0118866	-0.003058596514	1.442765006e-005	-2.641466141	0	0	1.0
[RightArmRoll]
32	-132.8954163	0.0004975197371	4.460558557e-005	1.717358629e-007	1.008304844e-005	-1.684297445e-006	1.0
33	-132.8953552	0.0004975197371	4.460558557e-005	1.717358629e-007	1.008304844e-005	-1.684297445e-006	1.0
[Neck]
32	269.559906	8.048624295e-005	-1.028017687e-005	0.8876581788	-0.9489036798	-1.244059205	1.0
33	269.5578003	8.048624295e-005	-1.028017687e-005	0.924138546	-0.8511052132	-1.405806303	1.0
[Neck1]
32	55.64810181	-5.94067842e-006	-1.174621275e-006	0.7635294199	-1.067121744	-1.229973197	1.0
33	55.64796448	-5.94067842e-006	-1.174621275e-006	0.8130638003	-0.9758018255	-1.393627644	1.0
[Head]
32	48.2783432	8.255112334e-006	4.355305009e-006	4.727920055	3.206186533	12.45793724	1.0
33	48.27826691	8.255112334e-006	4.355305009e-006	4.999804497	3.496405125	12.83342171	1.0
[Jaw]
32	16.62527084	-28.49801064	-6.624434263e-007	0	0	0	1.0
33	16.62527084	-28.49801064	-6.624434263e-007	0	0	0	1.0
[L_Eye]
32	62.91468811	-92.7388916	-39.95373535	0	0	0	1.0
33	62.91468811	-92.7388916	-39.95373535	0	0	0	1.0
[R_Eye_Socket]
32	62.91468811	-92.7388916	39.94999695	0	0	0	1.0
33	62.91468811	-92.7388916	39.94999695	0	0	0	1.0
[L_Eye_Socket]
32	62.91468811	-92.7388916	-39.95373535	0	0	0	1.0
33	62.91468811	-92.7388916	-39.95373535	0	0	0	1.0
[R_Eye]
32	62.91468811	-92.7388916	39.94999695	0	0	0	1.0
33	62.91468811	-92.7388916	39.94999695	0	0	0	1.0
[BK_WEP1]
32	159.8800049	132.8500061	-1.533420634e-012	0	0	0	1.0
33	159.8800049	132.8500061	-1.533420634e-012	0	0	0	1.0
[RightUpLeg]
32	-47.72180176	-9.041702271	88.56568909	-4.442439079	2.561996698	9.993225098	1.0
33	-47.72180176	-9.041702271	88.56575775	-2.742749929	0.9628879428	14.95497799	1.0
[RightLeg]
32	-428.6569519	-7.55895453e-005	0.0005053556524	2.492215395	-2.497026443	-61.72618866	1.0
33	-428.657074	-6.149660476e-005	0.0005053556524	0.5891666412	-4.23897934	-65.91619873	1.0
[RightFoot]
32	-444.4238892	0.0100288	-0.07918459177	5.004678249	3.689185619	-35.92678833	1.0
33	-444.4237061	0.009808498435	0.1861172765	4.708640099	4.618537903	-28.71177864	1.0
[RightToeBase]
32	-155.2784576	2.451968794e-005	-2.343192318e-005	0.0001901688083	-0.000105703657	-6.339188258e-005	1.0
33	-155.278595	3.003858728e-005	-2.343192318e-005	0.0004403642961	-0.0001829320972	-9.373517969e-005	1.0
[RightToeEnd]
32	-87.17578125	-5.002963007e-005	-0.0004951364244	0	0	0	1.0
33	-87.17578125	-5.002963007e-005	-0.0004951364244	0	0	0	1.0
[RightLegRoll]
32	-198.5740356	3.030341031e-005	-0.0004733095993	0.3510876894	-0.01815833896	-0.002268026117	1.0
33	-198.5740509	3.030341031e-005	-0.0004733095993	-0.87869519	0.04367458448	-0.002268026117	1.0
[RightUpLegRoll]
32	-166.7201385	2.828951438e-005	-3.297553485e-005	4.602033187e-006	1.224814127e-006	6.588880751e-006	1.0
33	-166.7200317	2.828951438e-005	-3.297553485e-005	4.602033187e-006	1.224814127e-006	6.588880751e-006	1.0
[EndOfFile]
